HIERARCHY
ROOT mixamorig:Hips
{
	OFFSET -0.000008 104.274872 1.554316
	CHANNELS 6 Xposition Yposition Zposition Xrotation Yrotation Zrotation
	JOINT mixamorig:Spine
	{
		OFFSET -0.000005 10.181595 0.131519
		CHANNELS 6 Xposition Yposition Zposition Xrotation Yrotation Zrotation
		JOINT mixamorig:Spine1
		{
			OFFSET -0.000000 9.893959 -1.470707
			CHANNELS 6 Xposition Yposition Zposition Xrotation Yrotation Zrotation
			JOINT mixamorig:Spine2
			{
				OFFSET -0.000000 9.220757 -1.370641
				CHANNELS 6 Xposition Yposition Zposition Xrotation Yrotation Zrotation
				JOINT mixamorig:Neck
				{
					OFFSET 0.000001 16.740417 -2.049036
					CHANNELS 6 Xposition Yposition Zposition Xrotation Yrotation Zrotation
					JOINT mixamorig:Head
					{
						OFFSET 0.000000 9.617874 1.685006
						CHANNELS 6 Xposition Yposition Zposition Xrotation Yrotation Zrotation
						JOINT mixamorig:HeadTop_End
						{
							OFFSET 0.000002 22.037354 7.501101
							CHANNELS 6 Xposition Yposition Zposition Xrotation Yrotation Zrotation
							End Site
							{
								OFFSET 0.000168 2310.654297 -282.823242
							}
						}
					}
				}
				JOINT mixamorig:RightShoulder
				{
					OFFSET -4.569970 11.014908 -2.160885
					CHANNELS 6 Xposition Yposition Zposition Xrotation Yrotation Zrotation
					JOINT mixamorig:RightArm
					{
						OFFSET -10.592851 -0.524811 -2.232101
						CHANNELS 6 Xposition Yposition Zposition Xrotation Yrotation Zrotation
						JOINT mixamorig:RightForeArm
						{
							OFFSET -27.841511 0.000031 -0.000004
							CHANNELS 6 Xposition Yposition Zposition Xrotation Yrotation Zrotation
							JOINT mixamorig:RightHand
							{
								OFFSET -28.328831 -0.000015 0.000015
								CHANNELS 6 Xposition Yposition Zposition Xrotation Yrotation Zrotation
								JOINT mixamorig:RightHandThumb1
								{
									OFFSET -2.464806 -1.573990 2.681852
									CHANNELS 6 Xposition Yposition Zposition Xrotation Yrotation Zrotation
									JOINT mixamorig:RightHandThumb2
									{
										OFFSET -3.215179 -1.872803 1.924282
										CHANNELS 6 Xposition Yposition Zposition Xrotation Yrotation Zrotation
										JOINT mixamorig:RightHandThumb3
										{
											OFFSET -2.654831 -1.527969 1.512609
											CHANNELS 6 Xposition Yposition Zposition Xrotation Yrotation Zrotation
											JOINT mixamorig:RightHandThumb4
											{
												OFFSET -2.018814 -1.152008 1.108052
												CHANNELS 6 Xposition Yposition Zposition Xrotation Yrotation Zrotation
												End Site
												{
													OFFSET -188.809540 -114.533607 132.431396
												}
											}
										}
									}
								}
								JOINT mixamorig:RightHandIndex1
								{
									OFFSET -9.108284 -0.517868 2.259835
									CHANNELS 6 Xposition Yposition Zposition Xrotation Yrotation Zrotation
									JOINT mixamorig:RightHandIndex2
									{
										OFFSET -3.699989 0.000000 0.001215
										CHANNELS 6 Xposition Yposition Zposition Xrotation Yrotation Zrotation
										JOINT mixamorig:RightHandIndex3
										{
											OFFSET -2.850006 0.000031 -0.000522
											CHANNELS 6 Xposition Yposition Zposition Xrotation Yrotation Zrotation
											JOINT mixamorig:RightHandIndex4
											{
												OFFSET -2.772186 -0.000015 -0.000020
												CHANNELS 6 Xposition Yposition Zposition Xrotation Yrotation Zrotation
												End Site
												{
													OFFSET -277.218445 0.000000 -0.050231
												}
											}
										}
									}
								}
								JOINT mixamorig:RightHandMiddle1
								{
									OFFSET -9.532516 -0.000031 -0.000023
									CHANNELS 6 Xposition Yposition Zposition Xrotation Yrotation Zrotation
									JOINT mixamorig:RightHandMiddle2
									{
										OFFSET -3.700005 -0.000015 0.003713
										CHANNELS 6 Xposition Yposition Zposition Xrotation Yrotation Zrotation
										JOINT mixamorig:RightHandMiddle3
										{
											OFFSET -2.949974 0.000015 -0.002054
											CHANNELS 6 Xposition Yposition Zposition Xrotation Yrotation Zrotation
											JOINT mixamorig:RightHandMiddle4
											{
												OFFSET -2.946640 0.000000 -0.000156
												CHANNELS 6 Xposition Yposition Zposition Xrotation Yrotation Zrotation
												End Site
												{
													OFFSET -294.664337 0.000000 -0.113670
												}
											}
										}
									}
								}
								JOINT mixamorig:RightHandRing1
								{
									OFFSET -9.103600 -0.043076 -1.865134
									CHANNELS 6 Xposition Yposition Zposition Xrotation Yrotation Zrotation
									JOINT mixamorig:RightHandRing2
									{
										OFFSET -3.379288 0.000000 -0.001055
										CHANNELS 6 Xposition Yposition Zposition Xrotation Yrotation Zrotation
										JOINT mixamorig:RightHandRing3
										{
											OFFSET -2.889687 -0.000015 0.000379
											CHANNELS 6 Xposition Yposition Zposition Xrotation Yrotation Zrotation
											JOINT mixamorig:RightHandRing4
											{
												OFFSET -2.638809 -0.000015 0.000941
												CHANNELS 6 Xposition Yposition Zposition Xrotation Yrotation Zrotation
												End Site
												{
													OFFSET -263.880371 0.000000 0.516020
												}
											}
										}
									}
								}
								JOINT mixamorig:RightHandPinky1
								{
									OFFSET -8.076683 -0.486710 -3.806280
									CHANNELS 6 Xposition Yposition Zposition Xrotation Yrotation Zrotation
									JOINT mixamorig:RightHandPinky2
									{
										OFFSET -3.600014 -0.000015 -0.003747
										CHANNELS 6 Xposition Yposition Zposition Xrotation Yrotation Zrotation
										JOINT mixamorig:RightHandPinky3
										{
											OFFSET -2.099983 0.000000 -0.005739
											CHANNELS 6 Xposition Yposition Zposition Xrotation Yrotation Zrotation
											JOINT mixamorig:RightHandPinky4
											{
												OFFSET -2.115768 -0.000031 -0.003680
												CHANNELS 6 Xposition Yposition Zposition Xrotation Yrotation Zrotation
												End Site
												{
													OFFSET -211.577087 0.000000 -0.350686
												}
											}
										}
									}
								}
							}
						}
					}
				}
				JOINT mixamorig:LeftShoulder
				{
					OFFSET 4.570447 11.014725 -2.160855
					CHANNELS 6 Xposition Yposition Zposition Xrotation Yrotation Zrotation
					JOINT mixamorig:LeftArm
					{
						OFFSET 10.592371 -0.524597 -2.232119
						CHANNELS 6 Xposition Yposition Zposition Xrotation Yrotation Zrotation
						JOINT mixamorig:LeftForeArm
						{
							OFFSET 27.841532 -0.000031 0.000026
							CHANNELS 6 Xposition Yposition Zposition Xrotation Yrotation Zrotation
							JOINT mixamorig:LeftHand
							{
								OFFSET 28.328846 -0.000061 0.000022
								CHANNELS 6 Xposition Yposition Zposition Xrotation Yrotation Zrotation
								JOINT mixamorig:LeftHandThumb1
								{
									OFFSET 2.466141 -1.576172 2.681732
									CHANNELS 6 Xposition Yposition Zposition Xrotation Yrotation Zrotation
									JOINT mixamorig:LeftHandThumb2
									{
										OFFSET 3.217812 -1.872070 1.916482
										CHANNELS 6 Xposition Yposition Zposition Xrotation Yrotation Zrotation
										JOINT mixamorig:LeftHandThumb3
										{
											OFFSET 2.656029 -1.528778 1.514513
											CHANNELS 6 Xposition Yposition Zposition Xrotation Yrotation Zrotation
											JOINT mixamorig:LeftHandThumb4
											{
												OFFSET 2.020889 -1.154053 1.115139
												CHANNELS 6 Xposition Yposition Zposition Xrotation Yrotation Zrotation
												End Site
												{
													OFFSET 190.885437 -115.081749 130.048782
												}
											}
										}
									}
								}
								JOINT mixamorig:LeftHandIndex1
								{
									OFFSET 9.109314 -0.518021 2.259871
									CHANNELS 6 Xposition Yposition Zposition Xrotation Yrotation Zrotation
									JOINT mixamorig:LeftHandIndex2
									{
										OFFSET 3.699989 0.000000 -0.000322
										CHANNELS 6 Xposition Yposition Zposition Xrotation Yrotation Zrotation
										JOINT mixamorig:LeftHandIndex3
										{
											OFFSET 2.850006 0.000000 0.000352
											CHANNELS 6 Xposition Yposition Zposition Xrotation Yrotation Zrotation
											JOINT mixamorig:LeftHandIndex4
											{
												OFFSET 2.774864 -0.000031 -0.000027
												CHANNELS 6 Xposition Yposition Zposition Xrotation Yrotation Zrotation
												End Site
												{
													OFFSET 277.486267 0.000000 -0.009857
												}
											}
										}
									}
								}
								JOINT mixamorig:LeftHandMiddle1
								{
									OFFSET 9.533394 0.000061 0.000044
									CHANNELS 6 Xposition Yposition Zposition Xrotation Yrotation Zrotation
									JOINT mixamorig:LeftHandMiddle2
									{
										OFFSET 3.699989 -0.000015 -0.000231
										CHANNELS 6 Xposition Yposition Zposition Xrotation Yrotation Zrotation
										JOINT mixamorig:LeftHandMiddle3
										{
											OFFSET 2.949997 -0.000015 -0.000059
											CHANNELS 6 Xposition Yposition Zposition Xrotation Yrotation Zrotation
											JOINT mixamorig:LeftHandMiddle4
											{
												OFFSET 2.952896 0.000031 0.000063
												CHANNELS 6 Xposition Yposition Zposition Xrotation Yrotation Zrotation
												End Site
												{
													OFFSET 295.289337 0.000000 0.022810
												}
											}
										}
									}
								}
								JOINT mixamorig:LeftHandRing1
								{
									OFFSET 9.104523 -0.042999 -1.865074
									CHANNELS 6 Xposition Yposition Zposition Xrotation Yrotation Zrotation
									JOINT mixamorig:LeftHandRing2
									{
										OFFSET 3.150009 -0.000031 0.000043
										CHANNELS 6 Xposition Yposition Zposition Xrotation Yrotation Zrotation
										JOINT mixamorig:LeftHandRing3
										{
											OFFSET 2.949982 -0.000015 0.000040
											CHANNELS 6 Xposition Yposition Zposition Xrotation Yrotation Zrotation
											JOINT mixamorig:LeftHandRing4
											{
												OFFSET 2.644348 0.000000 0.000057
												CHANNELS 6 Xposition Yposition Zposition Xrotation Yrotation Zrotation
												End Site
												{
													OFFSET 264.434631 0.000000 0.012105
												}
											}
										}
									}
								}
								JOINT mixamorig:LeftHandPinky1
								{
									OFFSET 8.077789 -0.486847 -3.806259
									CHANNELS 6 Xposition Yposition Zposition Xrotation Yrotation Zrotation
									JOINT mixamorig:LeftHandPinky2
									{
										OFFSET 3.599953 0.000031 0.014727
										CHANNELS 6 Xposition Yposition Zposition Xrotation Yrotation Zrotation
										JOINT mixamorig:LeftHandPinky3
										{
											OFFSET 2.100021 0.000015 0.007705
											CHANNELS 6 Xposition Yposition Zposition Xrotation Yrotation Zrotation
											JOINT mixamorig:LeftHandPinky4
											{
												OFFSET 2.125504 0.000031 0.007517
												CHANNELS 6 Xposition Yposition Zposition Xrotation Yrotation Zrotation
												End Site
												{
													OFFSET 212.550781 0.000000 0.625752
												}
											}
										}
									}
								}
							}
						}
					}
				}
			}
		}
	}
	JOINT mixamorig:RightUpLeg
	{
		OFFSET -8.207787 -6.751648 -1.599560
		CHANNELS 6 Xposition Yposition Zposition Xrotation Yrotation Zrotation
		JOINT mixamorig:RightLeg
		{
			OFFSET -0.000002 -44.370117 0.345942
			CHANNELS 6 Xposition Yposition Zposition Xrotation Yrotation Zrotation
			JOINT mixamorig:RightFoot
			{
				OFFSET 0.000003 -44.423679 -3.043532
				CHANNELS 6 Xposition Yposition Zposition Xrotation Yrotation Zrotation
				JOINT mixamorig:RightToeBase
				{
					OFFSET -0.000002 -8.728671 10.710558
					CHANNELS 6 Xposition Yposition Zposition Xrotation Yrotation Zrotation
					JOINT mixamorig:RightToe_End
					{
						OFFSET -0.000001 -0.000679 9.278119
						CHANNELS 6 Xposition Yposition Zposition Xrotation Yrotation Zrotation
						End Site
						{
							OFFSET 0.000000 -0.067690 927.812134
						}
					}
				}
			}
		}
	}
	JOINT mixamorig:LeftUpLeg
	{
		OFFSET 8.207793 -6.751686 -1.599556
		CHANNELS 6 Xposition Yposition Zposition Xrotation Yrotation Zrotation
		JOINT mixamorig:LeftLeg
		{
			OFFSET -0.000004 -44.370014 0.346954
			CHANNELS 6 Xposition Yposition Zposition Xrotation Yrotation Zrotation
			JOINT mixamorig:LeftFoot
			{
				OFFSET -0.000001 -44.423672 -3.044401
				CHANNELS 6 Xposition Yposition Zposition Xrotation Yrotation Zrotation
				JOINT mixamorig:LeftToeBase
				{
					OFFSET -0.000002 -8.728669 10.710558
					CHANNELS 6 Xposition Yposition Zposition Xrotation Yrotation Zrotation
					JOINT mixamorig:LeftToe_End
					{
						OFFSET -0.000003 -0.000679 9.278133
						CHANNELS 6 Xposition Yposition Zposition Xrotation Yrotation Zrotation
						End Site
						{
							OFFSET 0.000000 -0.068021 927.813477
						}
					}
				}
			}
		}
	}
}
MOTION
Frames: 3
Frame Time: 0.033333
0.000006 104.270477 1.554256 0.000010 0.000003 -0.000113 -0.000005 10.181587 0.131522 0.000001 -0.000003 0.000084 -0.000000 9.893967 -1.470711 0.000001 0.000000 -0.000000 -0.000000 9.220802 -1.370642 0.000000 -0.000000 -0.000000 0.000001 16.740433 -2.049030 0.000000 -0.000000 -0.000000 0.000000 9.617859 1.685014 0.000000 0.000000 0.000000 0.000002 22.037384 7.501101 0.000000 -0.000000 0.000000 -4.569968 11.014880 -2.160881 0.000008 0.000001 -0.000038 -10.592780 -0.524862 -2.231748 86.615104 62.561220 -59.597294 -27.841391 0.000003 0.000640 -1.567676 120.468828 2.740728 -28.328829 0.000020 0.000019 -0.000323 -0.000046 0.000007 -2.464349 -1.573979 2.682275 -26.878854 -128.253044 20.032100 -3.214725 -1.872719 1.924750 146.185391 -31.074024 192.578044 -2.654780 -1.527665 1.512984 136.601270 30.340704 79.673521 -2.018831 -1.152014 1.108053 -0.000003 -0.000001 0.000004 -9.108362 -0.517641 2.260313 140.623869 13.140344 -35.814005 -3.700071 0.000207 0.001691 137.104518 12.412555 -30.884189 -2.850092 0.000299 -0.000078 135.058822 9.706168 -23.198536 -2.772171 -0.000003 -0.000022 0.000000 0.000004 -0.000000 -9.532571 0.000228 0.000438 134.036930 10.377790 -24.495633 -3.700053 0.000314 0.004096 124.219120 7.176218 -13.343338 -2.950046 0.000342 -0.001671 120.091405 6.826735 -11.806317 -2.946623 0.000002 -0.000154 -0.000000 0.000001 0.000002 -9.103675 -0.042772 -1.864696 131.705527 9.285990 -20.442603 -3.379308 0.000316 -0.000691 124.029105 3.889812 -7.343486 -2.889733 0.000355 0.000731 122.289920 4.279849 -7.839392 -2.638808 0.000015 0.000946 -0.000001 -0.000004 -0.000000 -8.076720 -0.486407 -3.805838 131.178960 8.325160 -17.913510 -3.599999 0.000286 -0.003382 127.793044 1.191421 -1.779198 -2.099976 0.000337 -0.005343 126.219874 0.856145 -1.285860 -2.115763 -0.000041 -0.003679 -0.000001 0.000000 -0.000002 4.570446 11.014691 -2.160851 -0.000018 0.000010 -0.000021 10.592533 -0.524541 -2.232383 68.951641 -71.578381 52.674412 27.841730 -0.000085 -0.000088 55.058343 -110.089993 73.417724 28.328840 -0.000030 0.000014 0.000020 -0.000089 -0.000000 2.466133 -1.576187 2.681868 112.676620 134.853138 -155.541699 3.217851 -1.871982 1.916513 -65.370238 27.006886 21.525708 2.656059 -1.528742 1.514647 -67.016737 18.118031 21.251304 2.020887 -1.154067 1.115156 0.000000 0.000006 0.000004 9.109293 -0.517869 2.260110 -92.834736 -10.083057 -10.583348 3.699922 0.000228 -0.000082 251.982945 -17.674974 335.822698 2.849914 0.000286 0.000583 58.410999 -162.312001 148.892988 2.774892 -0.000063 -0.000025 0.000001 -0.000001 -0.000002 9.533401 0.000210 0.000289 -93.584090 -3.638033 -3.865742 3.699948 0.000225 0.000022 70.827416 -170.073459 166.075531 2.949938 0.000245 0.000161 242.841584 -13.066907 338.760908 2.952863 -0.000015 0.000062 0.000000 -0.000000 0.000001 9.104526 -0.042842 -1.864824 -93.358550 -3.573066 -3.790327 3.149984 0.000290 0.000245 -111.054184 -3.492542 -5.087145 2.949952 0.000281 0.000293 243.270957 -6.816673 348.954228 2.644324 0.000031 0.000054 0.000001 -0.000000 0.000001 8.077769 -0.486697 -3.806010 -97.694402 -4.616106 -5.771118 3.599960 0.000250 0.014962 -107.548350 3.241014 3.816965 2.100017 0.000258 0.007925 -111.813537 1.595672 1.744245 2.125497 -0.000002 0.007515 0.000000 -0.000000 -0.000001 -8.207786 -6.751667 -1.599560 -0.077001 -0.000003 0.000080 -0.000002 -44.370110 0.345938 0.153719 -0.000000 -0.000000 0.000000 -44.423679 -3.043532 -0.076700 0.000000 -0.000002 -0.000006 -8.728667 10.710559 -0.000009 -0.000000 -0.000000 -0.000001 -0.000679 9.278123 0.000000 -0.000000 -0.000000 8.207792 -6.751710 -1.599556 -0.074518 -0.000003 0.000081 -0.000002 -44.370014 0.346960 0.148822 0.000002 0.000000 -0.000001 -44.423664 -3.044403 -0.074314 0.000000 -0.000002 -0.000004 -8.728671 10.710558 0.000007 -0.000000 -0.000000 0.000000 -0.000680 9.278137 -0.000000 0.000000 -0.000001 
0.000006 104.270477 1.554256 0.000010 0.000003 -0.000113 -0.000005 10.181587 0.131522 0.000001 -0.000003 0.000084 -0.000000 9.893967 -1.470711 0.000001 0.000000 -0.000000 -0.000000 9.220802 -1.370642 0.000000 -0.000000 -0.000000 0.000001 16.740433 -2.049030 0.000000 -0.000000 -0.000000 0.000000 9.617859 1.685014 0.000000 0.000000 0.000000 0.000002 22.037384 7.501101 0.000000 -0.000000 0.000000 -4.569968 11.014880 -2.160881 0.000008 0.000001 -0.000038 -10.592785 -0.524853 -2.231751 83.063215 62.698261 -56.699115 -27.841412 -0.000011 0.000627 -1.984834 115.860622 3.167286 -28.328831 0.000020 0.000025 -0.000325 -0.000044 0.000008 -2.464364 -1.573949 2.682267 -32.861293 -133.325648 12.813250 -3.214698 -1.872671 1.924747 139.646701 -25.502760 180.923447 -2.654835 -1.527667 1.512989 140.252348 32.698230 67.016218 -2.018841 -1.152015 1.108062 -0.000001 0.000003 0.000002 -9.108378 -0.517629 2.260315 138.796397 14.179784 -36.738515 -3.700067 0.000231 0.001709 135.026870 13.709402 -32.329355 -2.850080 0.000297 -0.000082 133.329882 10.758312 -24.623611 -2.772180 -0.000014 -0.000021 -0.000001 -0.000005 0.000001 -9.532572 0.000234 0.000414 131.675105 11.530434 -25.673768 -3.700062 0.000329 0.004102 122.353564 7.687048 -13.756632 -2.950038 0.000351 -0.001701 118.783014 6.905393 -11.634913 -2.946630 0.000012 -0.000151 -0.000000 0.000003 0.000002 -9.103672 -0.042761 -1.864707 129.584767 10.013435 -20.995935 -3.379292 0.000337 -0.000690 122.292830 3.496312 -6.370342 -2.889736 0.000353 0.000742 120.887477 3.370158 -6.016309 -2.638815 -0.000005 0.000945 0.000001 0.000004 -0.000001 -8.076719 -0.486404 -3.805859 128.822477 8.335730 -17.014174 -3.600003 0.000297 -0.003391 127.816663 0.697015 -0.777530 -2.099988 0.000318 -0.005343 127.354819 0.382109 -0.363987 -2.115769 -0.000044 -0.003675 -0.000003 -0.000003 -0.000003 4.570446 11.014691 -2.160851 -0.000018 0.000010 -0.000021 10.592523 -0.524549 -2.232375 61.299718 -71.477021 46.188031 27.841715 -0.000043 -0.000078 63.677587 -111.384662 84.606810 28.328838 -0.000030 0.000022 0.000019 -0.000088 -0.000000 2.466117 -1.576184 2.681814 143.304991 146.762037 -173.069658 3.217814 -1.872035 1.916502 -56.173781 36.112245 17.824197 2.656039 -1.528790 1.514566 -68.580372 33.474337 24.688094 2.020906 -1.154059 1.115153 0.000002 0.000004 0.000002 9.109310 -0.517846 2.260108 -88.885630 -3.453714 -3.378029 3.699969 0.000144 -0.000105 274.996475 -10.351784 350.499244 2.849986 0.000155 0.000597 94.807602 -170.779577 171.520516 2.774872 -0.000034 -0.000029 -0.000002 0.000001 -0.000000 9.533405 0.000223 0.000281 -91.014654 -0.198617 -0.194905 3.699998 0.000160 0.000036 87.392093 -174.347381 174.086605 2.949993 0.000174 0.000178 270.075679 -5.752224 354.253171 2.952860 -0.000033 0.000068 0.000000 0.000001 -0.000001 9.104540 -0.042848 -1.864843 -90.648754 1.184538 1.196388 3.150007 0.000201 0.000259 -94.845065 -0.572986 -0.625259 2.949975 0.000172 0.000294 269.673026 -3.028721 356.952571 2.644324 0.000035 0.000045 0.000002 -0.000001 0.000001 8.077798 -0.486725 -3.806056 -88.381173 4.448675 3.835255 3.599978 0.000179 0.014951 -86.774302 7.171193 6.334900 2.100006 0.000173 0.007926 -85.128766 3.256994 2.599838 2.125503 -0.000000 0.007502 0.000000 0.000000 0.000000 -8.207786 -6.751667 -1.599560 -0.077001 -0.000003 0.000080 -0.000002 -44.370110 0.345938 0.153719 -0.000000 -0.000000 0.000000 -44.423679 -3.043532 -0.076700 0.000000 -0.000002 -0.000006 -8.728667 10.710559 -0.000009 -0.000000 -0.000000 -0.000001 -0.000679 9.278123 0.000000 -0.000000 -0.000000 8.207792 -6.751710 -1.599556 -0.074518 -0.000003 0.000081 -0.000002 -44.370014 0.346960 0.148822 0.000002 0.000000 -0.000001 -44.423664 -3.044403 -0.074314 0.000000 -0.000002 -0.000004 -8.728671 10.710558 0.000007 -0.000000 -0.000000 0.000000 -0.000680 9.278137 -0.000000 0.000000 -0.000001 
0.000006 104.270477 1.554256 0.000010 0.000003 -0.000113 -0.000005 10.181587 0.131522 0.000001 -0.000003 0.000084 -0.000000 9.893967 -1.470711 0.000001 0.000000 -0.000000 -0.000000 9.220802 -1.370642 0.000000 -0.000000 -0.000000 0.000001 16.740433 -2.049030 0.000000 -0.000000 -0.000000 0.000000 9.617859 1.685014 0.000000 0.000000 0.000000 0.000002 22.037384 7.501101 0.000000 -0.000000 0.000000 -4.569968 11.014880 -2.160881 0.000008 0.000001 -0.000038 -10.592777 -0.524849 -2.231747 81.614456 63.382994 -56.121311 -27.841404 0.000015 0.000617 -1.878079 117.456659 3.091814 -28.328829 0.000022 0.000028 -0.000321 -0.000043 0.000007 -2.464357 -1.573943 2.682272 -31.113288 -133.114281 15.467897 -3.214696 -1.872673 1.924742 140.137669 -25.560508 181.969818 -2.654809 -1.527662 1.512984 138.435558 31.709041 74.038697 -2.018823 -1.152013 1.108061 -0.000003 0.000000 0.000004 -9.108370 -0.517653 2.260304 140.475995 13.394841 -36.327949 -3.700063 0.000224 0.001685 135.983343 12.820511 -31.008239 -2.850090 0.000317 -0.000085 133.879330 9.958845 -23.130458 -2.772161 -0.000017 -0.000018 -0.000000 -0.000004 -0.000001 -9.532571 0.000231 0.000421 133.739981 10.840600 -25.369973 -3.700047 0.000338 0.004111 123.460095 6.771526 -12.389431 -2.950028 0.000334 -0.001705 118.044957 6.534120 -10.852245 -2.946627 0.000002 -0.000162 -0.000002 -0.000003 0.000001 -9.103669 -0.042777 -1.864704 131.072669 9.578227 -20.775987 -3.379288 0.000339 -0.000688 123.370729 3.323362 -6.193896 -2.889737 0.000360 0.000740 120.503675 3.877445 -6.856146 -2.638801 -0.000019 0.000935 -0.000001 0.000001 -0.000003 -8.076720 -0.486405 -3.805850 130.054329 8.488049 -17.806643 -3.599996 0.000296 -0.003377 125.295681 0.646014 -0.638253 -2.099987 0.000317 -0.005347 122.864462 0.574703 -0.683019 -2.115769 -0.000068 -0.003682 -0.000000 0.000002 -0.000006 4.570446 11.014691 -2.160851 -0.000018 0.000010 -0.000021 10.592518 -0.524554 -2.232379 60.440112 -70.685710 44.888714 27.841713 -0.000068 -0.000066 61.361340 -110.494552 81.070999 28.328840 -0.000013 0.000033 0.000022 -0.000089 -0.000000 2.466147 -1.576197 2.681846 134.471221 158.613508 -168.200088 3.217810 -1.871999 1.916541 -58.896776 33.262393 19.032452 2.656035 -1.528792 1.514580 -66.063529 33.260924 23.307961 2.020895 -1.154080 1.115156 0.000002 0.000007 0.000004 9.109304 -0.517873 2.260110 -93.640309 -8.310453 -8.844876 3.699957 0.000167 -0.000087 266.976822 -12.590774 346.721385 2.849970 0.000220 0.000589 83.666430 -169.361767 168.125079 2.774886 -0.000046 -0.000019 0.000001 -0.000000 -0.000003 9.533396 0.000210 0.000282 -94.619082 -5.712502 -6.184809 3.699975 0.000182 0.000027 85.603683 -170.260688 169.489327 2.949986 0.000185 0.000175 267.646017 -7.399543 352.288726 2.952871 -0.000014 0.000067 0.000005 -0.000000 0.000001 9.104511 -0.042868 -1.864825 -94.364084 -4.998790 -5.395808 3.150008 0.000216 0.000275 -92.963362 -2.826079 -2.977630 2.949978 0.000176 0.000300 269.883095 -1.445558 358.550043 2.644320 0.000014 0.000047 -0.000001 0.000000 -0.000001 8.077771 -0.486714 -3.806026 -90.655093 -2.207241 -2.687927 3.599967 0.000184 0.014952 -87.459220 3.374568 2.802753 2.100003 0.000155 0.007927 -86.847563 3.060507 2.494530 2.125498 -0.000032 0.007516 -0.000002 -0.000000 -0.000001 -8.207786 -6.751667 -1.599560 -0.077001 -0.000003 0.000080 -0.000002 -44.370110 0.345938 0.153719 -0.000000 -0.000000 0.000000 -44.423679 -3.043532 -0.076700 0.000000 -0.000002 -0.000006 -8.728667 10.710559 -0.000009 -0.000000 -0.000000 -0.000001 -0.000679 9.278123 0.000000 -0.000000 -0.000000 8.207792 -6.751710 -1.599556 -0.074518 -0.000003 0.000081 -0.000002 -44.370014 0.346960 0.148822 0.000002 0.000000 -0.000001 -44.423664 -3.044403 -0.074314 0.000000 -0.000002 -0.000004 -8.728671 10.710558 0.000007 -0.000000 -0.000000 0.000000 -0.000680 9.278137 -0.000000 0.000000 -0.000001 
